<mxfile host="app.diagrams.net" agent="Mozilla/5.0 (Windows NT 10.0; Win64; x64) AppleWebKit/537.36 (KHTML, like Gecko) Chrome/123.0.0.0 Safari/537.36 OPR/109.0.0.0" version="24.7.7">
  <diagram id="prtHgNgQTEPvFCAcTncT" name="Page-1">
    <mxGraphModel grid="1" page="1" gridSize="10" guides="1" tooltips="1" connect="1" arrows="1" fold="1" pageScale="1" pageWidth="827" pageHeight="1169" math="0" shadow="0">
      <root>
        <mxCell id="0" />
        <mxCell id="1" parent="0" />
        <mxCell id="4NpJoIO45kTvrmFs0-gZ-23" value="" style="group" connectable="0" vertex="1" parent="1">
          <mxGeometry x="10" y="30" width="809" height="1130" as="geometry" />
        </mxCell>
        <mxCell id="4NpJoIO45kTvrmFs0-gZ-18" value="" style="rounded=0;whiteSpace=wrap;html=1;" vertex="1" parent="4NpJoIO45kTvrmFs0-gZ-23">
          <mxGeometry x="532.99" y="-12.995000000000001" width="276.01" height="1142.9950000000001" as="geometry" />
        </mxCell>
        <mxCell id="dNxyNK7c78bLwvsdeMH5-27" value="" style="edgeStyle=orthogonalEdgeStyle;rounded=0;orthogonalLoop=1;jettySize=auto;html=1;dashed=1;endArrow=none;endFill=0;" edge="1" parent="4NpJoIO45kTvrmFs0-gZ-23">
          <mxGeometry relative="1" as="geometry">
            <mxPoint x="352.1529411764706" y="398.0681818181818" as="sourcePoint" />
            <mxPoint x="352.1529411764706" y="398.0681818181818" as="targetPoint" />
          </mxGeometry>
        </mxCell>
        <mxCell id="4NpJoIO45kTvrmFs0-gZ-1" value="" style="rounded=0;whiteSpace=wrap;html=1;" vertex="1" parent="4NpJoIO45kTvrmFs0-gZ-23">
          <mxGeometry width="256.97647058823526" height="1130" as="geometry" />
        </mxCell>
        <mxCell id="4NpJoIO45kTvrmFs0-gZ-2" value="" style="rounded=0;whiteSpace=wrap;html=1;" vertex="1" parent="4NpJoIO45kTvrmFs0-gZ-23">
          <mxGeometry x="256.97647058823526" width="276.01176470588234" height="1130" as="geometry" />
        </mxCell>
        <mxCell id="4NpJoIO45kTvrmFs0-gZ-4" value="" style="rounded=0;whiteSpace=wrap;html=1;" vertex="1" parent="4NpJoIO45kTvrmFs0-gZ-23">
          <mxGeometry width="532.9882352941175" height="102.72727272727275" as="geometry" />
        </mxCell>
        <mxCell id="4NpJoIO45kTvrmFs0-gZ-5" value="&lt;b&gt;&lt;font style=&quot;font-size: 21px;&quot;&gt;Activity Diagram&lt;/font&gt;&lt;/b&gt;" style="rounded=0;whiteSpace=wrap;html=1;" vertex="1" parent="4NpJoIO45kTvrmFs0-gZ-23">
          <mxGeometry y="-12.988505747126439" width="809" height="64.3580459770115" as="geometry" />
        </mxCell>
        <mxCell id="4NpJoIO45kTvrmFs0-gZ-6" value="&lt;b&gt;&lt;font style=&quot;font-size: 18px;&quot;&gt;User&lt;/font&gt;&lt;/b&gt;" style="rounded=0;whiteSpace=wrap;html=1;" vertex="1" parent="4NpJoIO45kTvrmFs0-gZ-23">
          <mxGeometry y="51.363636363636374" width="256.97647058823526" height="51.363636363636374" as="geometry" />
        </mxCell>
        <mxCell id="4NpJoIO45kTvrmFs0-gZ-7" value="&lt;b&gt;&lt;font style=&quot;font-size: 18px;&quot;&gt;System Page&lt;/font&gt;&lt;/b&gt;" style="text;html=1;align=center;verticalAlign=middle;whiteSpace=wrap;rounded=0;" vertex="1" parent="4NpJoIO45kTvrmFs0-gZ-23">
          <mxGeometry x="342.63529411764705" y="57.784090909090914" width="127.53647058823528" height="38.52272727272727" as="geometry" />
        </mxCell>
        <mxCell id="4NpJoIO45kTvrmFs0-gZ-10" value="" style="edgeStyle=orthogonalEdgeStyle;rounded=0;orthogonalLoop=1;jettySize=auto;html=1;" edge="1" parent="4NpJoIO45kTvrmFs0-gZ-23" source="4NpJoIO45kTvrmFs0-gZ-8" target="4NpJoIO45kTvrmFs0-gZ-9">
          <mxGeometry relative="1" as="geometry" />
        </mxCell>
        <mxCell id="4NpJoIO45kTvrmFs0-gZ-8" value="" style="ellipse;whiteSpace=wrap;html=1;aspect=fixed;labelBackgroundColor=none;fillColor=#000000;" vertex="1" parent="4NpJoIO45kTvrmFs0-gZ-23">
          <mxGeometry x="100.31019655667146" y="116.9012748171369" width="55.664208735110606" height="55.664208735110606" as="geometry" />
        </mxCell>
        <mxCell id="4NpJoIO45kTvrmFs0-gZ-16" style="edgeStyle=orthogonalEdgeStyle;rounded=0;orthogonalLoop=1;jettySize=auto;html=1;" edge="1" parent="4NpJoIO45kTvrmFs0-gZ-23" source="4NpJoIO45kTvrmFs0-gZ-9" target="4NpJoIO45kTvrmFs0-gZ-52">
          <mxGeometry relative="1" as="geometry">
            <mxPoint x="323.59999999999997" y="192.22988505747128" as="targetPoint" />
            <Array as="points">
              <mxPoint x="237" y="265.3482142857143" />
              <mxPoint x="237" y="138.22321428571428" />
            </Array>
          </mxGeometry>
        </mxCell>
        <mxCell id="4NpJoIO45kTvrmFs0-gZ-9" value="&lt;font style=&quot;font-size: 12px;&quot;&gt;Website Access&lt;/font&gt;" style="rounded=1;whiteSpace=wrap;html=1;labelBackgroundColor=none;" vertex="1" parent="4NpJoIO45kTvrmFs0-gZ-23">
          <mxGeometry x="80.31791463414635" y="243.97609195402302" width="96.34006097560976" height="41.77103448275862" as="geometry" />
        </mxCell>
        <mxCell id="4NpJoIO45kTvrmFs0-gZ-22" value="&lt;b&gt;&lt;font style=&quot;font-size: 18px;&quot;&gt;System Login&lt;/font&gt;&lt;/b&gt;" style="rounded=0;whiteSpace=wrap;html=1;" vertex="1" parent="4NpJoIO45kTvrmFs0-gZ-23">
          <mxGeometry x="532.9928780487805" y="51.36954022988507" width="276.0071219512195" height="51.36954022988507" as="geometry" />
        </mxCell>
        <mxCell id="4NpJoIO45kTvrmFs0-gZ-60" style="edgeStyle=orthogonalEdgeStyle;rounded=0;orthogonalLoop=1;jettySize=auto;html=1;" edge="1" parent="4NpJoIO45kTvrmFs0-gZ-23">
          <mxGeometry relative="1" as="geometry">
            <mxPoint x="394.9630081300812" y="157.6754022988506" as="sourcePoint" />
            <mxPoint x="483.4268292682927" y="197.39999999999998" as="targetPoint" />
            <Array as="points">
              <mxPoint x="394.6341463414634" y="179" />
              <mxPoint x="483.4268292682927" y="179" />
            </Array>
          </mxGeometry>
        </mxCell>
        <mxCell id="4NpJoIO45kTvrmFs0-gZ-63" style="edgeStyle=orthogonalEdgeStyle;rounded=0;orthogonalLoop=1;jettySize=auto;html=1;" edge="1" parent="4NpJoIO45kTvrmFs0-gZ-23" source="4NpJoIO45kTvrmFs0-gZ-52" target="4NpJoIO45kTvrmFs0-gZ-62">
          <mxGeometry relative="1" as="geometry">
            <Array as="points">
              <mxPoint x="394.6341463414634" y="179" />
              <mxPoint x="394.6341463414634" y="179" />
            </Array>
          </mxGeometry>
        </mxCell>
        <mxCell id="4NpJoIO45kTvrmFs0-gZ-52" value="&lt;font style=&quot;font-size: 12px;&quot;&gt;Display Homepage&lt;/font&gt;" style="rounded=1;whiteSpace=wrap;html=1;labelBackgroundColor=none;" vertex="1" parent="4NpJoIO45kTvrmFs0-gZ-23">
          <mxGeometry x="346.81435365853656" y="116.90436781609196" width="96.34006097560976" height="41.77103448275862" as="geometry" />
        </mxCell>
        <mxCell id="4NpJoIO45kTvrmFs0-gZ-54" value="&lt;font style=&quot;font-size: 12px;&quot;&gt;Display Main Detail&lt;/font&gt;" style="rounded=1;whiteSpace=wrap;html=1;labelBackgroundColor=none;" vertex="1" parent="4NpJoIO45kTvrmFs0-gZ-23">
          <mxGeometry x="270.206" y="198.4" width="76.6083536585366" height="41.6" as="geometry" />
        </mxCell>
        <mxCell id="4NpJoIO45kTvrmFs0-gZ-55" value="" style="edgeStyle=orthogonalEdgeStyle;rounded=0;orthogonalLoop=1;jettySize=auto;html=1;" edge="1" parent="4NpJoIO45kTvrmFs0-gZ-23" source="4NpJoIO45kTvrmFs0-gZ-52" target="4NpJoIO45kTvrmFs0-gZ-54">
          <mxGeometry relative="1" as="geometry" />
        </mxCell>
        <mxCell id="4NpJoIO45kTvrmFs0-gZ-59" value="&lt;span style=&quot;font-size: 11px;&quot;&gt;Display Footer&lt;/span&gt;" style="rounded=1;whiteSpace=wrap;html=1;labelBackgroundColor=none;" vertex="1" parent="4NpJoIO45kTvrmFs0-gZ-23">
          <mxGeometry x="443.9634146341463" y="198.4" width="78.92682926829269" height="37.79" as="geometry" />
        </mxCell>
        <mxCell id="4NpJoIO45kTvrmFs0-gZ-62" value="&lt;span style=&quot;font-size: 11px;&quot;&gt;Display Subscribe Section&lt;/span&gt;" style="rounded=1;whiteSpace=wrap;html=1;labelBackgroundColor=none;" vertex="1" parent="4NpJoIO45kTvrmFs0-gZ-23">
          <mxGeometry x="356.68020731707315" y="198.4" width="76.6083536585366" height="41.6" as="geometry" />
        </mxCell>
        <mxCell id="4NpJoIO45kTvrmFs0-gZ-71" value="" style="edgeStyle=orthogonalEdgeStyle;rounded=0;orthogonalLoop=1;jettySize=auto;html=1;" edge="1" parent="4NpJoIO45kTvrmFs0-gZ-23" source="4NpJoIO45kTvrmFs0-gZ-64" target="4NpJoIO45kTvrmFs0-gZ-67">
          <mxGeometry relative="1" as="geometry">
            <Array as="points">
              <mxPoint x="236.78048780487805" y="350.99999999999994" />
              <mxPoint x="236.78048780487805" y="307" />
            </Array>
          </mxGeometry>
        </mxCell>
        <mxCell id="4NpJoIO45kTvrmFs0-gZ-64" value="&lt;font style=&quot;font-size: 12px;&quot;&gt;User clicked product page&lt;/font&gt;" style="rounded=1;whiteSpace=wrap;html=1;labelBackgroundColor=none;" vertex="1" parent="4NpJoIO45kTvrmFs0-gZ-23">
          <mxGeometry x="80.31791463414636" y="329.99712643678157" width="96.34006097560976" height="41.77103448275862" as="geometry" />
        </mxCell>
        <mxCell id="4NpJoIO45kTvrmFs0-gZ-65" value="" style="edgeStyle=orthogonalEdgeStyle;rounded=0;orthogonalLoop=1;jettySize=auto;html=1;" edge="1" parent="4NpJoIO45kTvrmFs0-gZ-23" source="4NpJoIO45kTvrmFs0-gZ-9" target="4NpJoIO45kTvrmFs0-gZ-64">
          <mxGeometry relative="1" as="geometry" />
        </mxCell>
        <mxCell id="4NpJoIO45kTvrmFs0-gZ-123" style="edgeStyle=orthogonalEdgeStyle;rounded=0;orthogonalLoop=1;jettySize=auto;html=1;" edge="1" parent="4NpJoIO45kTvrmFs0-gZ-23" source="4NpJoIO45kTvrmFs0-gZ-67" target="4NpJoIO45kTvrmFs0-gZ-122">
          <mxGeometry relative="1" as="geometry">
            <Array as="points">
              <mxPoint x="395.6207317073171" y="340" />
              <mxPoint x="318.6670731707317" y="340" />
            </Array>
          </mxGeometry>
        </mxCell>
        <mxCell id="4NpJoIO45kTvrmFs0-gZ-161" style="edgeStyle=orthogonalEdgeStyle;rounded=0;orthogonalLoop=1;jettySize=auto;html=1;" edge="1" parent="4NpJoIO45kTvrmFs0-gZ-23" source="4NpJoIO45kTvrmFs0-gZ-67" target="4NpJoIO45kTvrmFs0-gZ-159">
          <mxGeometry relative="1" as="geometry">
            <Array as="points">
              <mxPoint x="395.6207317073171" y="431" />
            </Array>
          </mxGeometry>
        </mxCell>
        <mxCell id="4NpJoIO45kTvrmFs0-gZ-67" value="&lt;font style=&quot;font-size: 12px;&quot;&gt;Display Product Page&lt;/font&gt;" style="rounded=1;whiteSpace=wrap;html=1;labelBackgroundColor=none;" vertex="1" parent="4NpJoIO45kTvrmFs0-gZ-23">
          <mxGeometry x="347.6233536585366" y="285.75" width="96.34006097560976" height="41.769999999999996" as="geometry" />
        </mxCell>
        <mxCell id="4NpJoIO45kTvrmFs0-gZ-154" value="" style="edgeStyle=orthogonalEdgeStyle;rounded=0;orthogonalLoop=1;jettySize=auto;html=1;" edge="1" parent="4NpJoIO45kTvrmFs0-gZ-23" source="4NpJoIO45kTvrmFs0-gZ-122" target="4NpJoIO45kTvrmFs0-gZ-153">
          <mxGeometry relative="1" as="geometry" />
        </mxCell>
        <mxCell id="4NpJoIO45kTvrmFs0-gZ-122" value="&lt;font style=&quot;font-size: 12px;&quot;&gt;Display Kategori Produk&lt;/font&gt;" style="rounded=1;whiteSpace=wrap;html=1;labelBackgroundColor=none;" vertex="1" parent="4NpJoIO45kTvrmFs0-gZ-23">
          <mxGeometry x="270.206" y="349.99999999999994" width="96.34006097560976" height="41.769999999999996" as="geometry" />
        </mxCell>
        <mxCell id="4NpJoIO45kTvrmFs0-gZ-124" value="&lt;font style=&quot;font-size: 12px;&quot;&gt;Display Feature Produk&lt;/font&gt;" style="rounded=1;whiteSpace=wrap;html=1;labelBackgroundColor=none;" vertex="1" parent="4NpJoIO45kTvrmFs0-gZ-23">
          <mxGeometry x="414.3658536585366" y="349.99999999999994" width="96.34006097560976" height="41.769999999999996" as="geometry" />
        </mxCell>
        <mxCell id="4NpJoIO45kTvrmFs0-gZ-153" value="&lt;font style=&quot;font-size: 12px;&quot;&gt;Display Detail Produk&lt;/font&gt;" style="rounded=1;whiteSpace=wrap;html=1;labelBackgroundColor=none;" vertex="1" parent="4NpJoIO45kTvrmFs0-gZ-23">
          <mxGeometry x="270.206" y="409.99999999999994" width="96.34006097560976" height="41.769999999999996" as="geometry" />
        </mxCell>
        <mxCell id="4NpJoIO45kTvrmFs0-gZ-155" style="edgeStyle=orthogonalEdgeStyle;rounded=0;orthogonalLoop=1;jettySize=auto;html=1;" edge="1" parent="4NpJoIO45kTvrmFs0-gZ-23" source="4NpJoIO45kTvrmFs0-gZ-67">
          <mxGeometry relative="1" as="geometry">
            <mxPoint x="473.5609756097561" y="349.99999999999994" as="targetPoint" />
            <Array as="points">
              <mxPoint x="395.6207317073171" y="340" />
              <mxPoint x="473.5609756097561" y="340" />
            </Array>
          </mxGeometry>
        </mxCell>
        <mxCell id="4NpJoIO45kTvrmFs0-gZ-159" value="&lt;font style=&quot;font-size: 12px;&quot;&gt;Display&amp;nbsp;Footer&lt;/font&gt;" style="rounded=1;whiteSpace=wrap;html=1;labelBackgroundColor=none;" vertex="1" parent="4NpJoIO45kTvrmFs0-gZ-23">
          <mxGeometry x="414.3658536585366" y="409.99999999999994" width="96.34006097560976" height="41.769999999999996" as="geometry" />
        </mxCell>
        <mxCell id="4NpJoIO45kTvrmFs0-gZ-169" style="edgeStyle=orthogonalEdgeStyle;rounded=0;orthogonalLoop=1;jettySize=auto;html=1;" edge="1" parent="4NpJoIO45kTvrmFs0-gZ-23" source="4NpJoIO45kTvrmFs0-gZ-157" target="4NpJoIO45kTvrmFs0-gZ-167">
          <mxGeometry relative="1" as="geometry" />
        </mxCell>
        <mxCell id="4NpJoIO45kTvrmFs0-gZ-157" value="&lt;font style=&quot;font-size: 12px;&quot;&gt;User clicked contact page&lt;/font&gt;" style="rounded=1;whiteSpace=wrap;html=1;labelBackgroundColor=none;" vertex="1" parent="4NpJoIO45kTvrmFs0-gZ-23">
          <mxGeometry x="80.31791463414636" y="484.29066091954024" width="96.34006097560976" height="41.77103448275862" as="geometry" />
        </mxCell>
        <mxCell id="4NpJoIO45kTvrmFs0-gZ-158" value="" style="edgeStyle=orthogonalEdgeStyle;rounded=0;orthogonalLoop=1;jettySize=auto;html=1;" edge="1" parent="4NpJoIO45kTvrmFs0-gZ-23" source="4NpJoIO45kTvrmFs0-gZ-64" target="4NpJoIO45kTvrmFs0-gZ-157">
          <mxGeometry relative="1" as="geometry" />
        </mxCell>
        <mxCell id="4NpJoIO45kTvrmFs0-gZ-163" value="&lt;font style=&quot;font-size: 12px;&quot;&gt;Input Name&lt;/font&gt;" style="rounded=1;whiteSpace=wrap;html=1;labelBackgroundColor=none;" vertex="1" parent="4NpJoIO45kTvrmFs0-gZ-23">
          <mxGeometry x="267.31" y="559.9553571428571" width="79.79" height="34.82821428571429" as="geometry" />
        </mxCell>
        <mxCell id="4NpJoIO45kTvrmFs0-gZ-165" value="&lt;font style=&quot;font-size: 12px;&quot;&gt;Input Email&lt;/font&gt;" style="rounded=1;whiteSpace=wrap;html=1;labelBackgroundColor=none;" vertex="1" parent="4NpJoIO45kTvrmFs0-gZ-23">
          <mxGeometry x="355.37" y="559.9553571428571" width="80" height="34.82821428571429" as="geometry" />
        </mxCell>
        <mxCell id="4NpJoIO45kTvrmFs0-gZ-166" value="&lt;font style=&quot;font-size: 12px;&quot;&gt;Input Email&lt;/font&gt;" style="rounded=1;whiteSpace=wrap;html=1;labelBackgroundColor=none;" vertex="1" parent="4NpJoIO45kTvrmFs0-gZ-23">
          <mxGeometry x="442.65000000000003" y="559.9553571428571" width="80" height="34.82821428571429" as="geometry" />
        </mxCell>
        <mxCell id="4NpJoIO45kTvrmFs0-gZ-170" style="edgeStyle=orthogonalEdgeStyle;rounded=0;orthogonalLoop=1;jettySize=auto;html=1;" edge="1" parent="4NpJoIO45kTvrmFs0-gZ-23" source="4NpJoIO45kTvrmFs0-gZ-167" target="4NpJoIO45kTvrmFs0-gZ-163">
          <mxGeometry relative="1" as="geometry">
            <Array as="points">
              <mxPoint x="395" y="539.7767857142857" />
              <mxPoint x="307" y="539.7767857142857" />
            </Array>
          </mxGeometry>
        </mxCell>
        <mxCell id="4NpJoIO45kTvrmFs0-gZ-171" style="edgeStyle=orthogonalEdgeStyle;rounded=0;orthogonalLoop=1;jettySize=auto;html=1;entryX=0.5;entryY=0;entryDx=0;entryDy=0;" edge="1" parent="4NpJoIO45kTvrmFs0-gZ-23" source="4NpJoIO45kTvrmFs0-gZ-167" target="4NpJoIO45kTvrmFs0-gZ-165">
          <mxGeometry relative="1" as="geometry" />
        </mxCell>
        <mxCell id="4NpJoIO45kTvrmFs0-gZ-167" value="&lt;font style=&quot;font-size: 12px;&quot;&gt;Display Contact Page&lt;/font&gt;" style="rounded=1;whiteSpace=wrap;html=1;labelBackgroundColor=none;" vertex="1" parent="4NpJoIO45kTvrmFs0-gZ-23">
          <mxGeometry x="346.80791463414636" y="484.29066091954024" width="96.34006097560976" height="41.77103448275862" as="geometry" />
        </mxCell>
        <mxCell id="4NpJoIO45kTvrmFs0-gZ-174" style="edgeStyle=orthogonalEdgeStyle;rounded=0;orthogonalLoop=1;jettySize=auto;html=1;entryX=0.541;entryY=0.01;entryDx=0;entryDy=0;entryPerimeter=0;" edge="1" parent="4NpJoIO45kTvrmFs0-gZ-23" source="4NpJoIO45kTvrmFs0-gZ-167" target="4NpJoIO45kTvrmFs0-gZ-166">
          <mxGeometry relative="1" as="geometry">
            <Array as="points">
              <mxPoint x="395" y="539.7767857142857" />
              <mxPoint x="486" y="539.7767857142857" />
            </Array>
          </mxGeometry>
        </mxCell>
        <mxCell id="4NpJoIO45kTvrmFs0-gZ-183" value="" style="edgeStyle=orthogonalEdgeStyle;rounded=0;orthogonalLoop=1;jettySize=auto;html=1;" edge="1" parent="4NpJoIO45kTvrmFs0-gZ-23" source="4NpJoIO45kTvrmFs0-gZ-177" target="4NpJoIO45kTvrmFs0-gZ-180">
          <mxGeometry relative="1" as="geometry" />
        </mxCell>
        <mxCell id="4NpJoIO45kTvrmFs0-gZ-177" value="&lt;font style=&quot;font-size: 12px;&quot;&gt;User clicked about page&lt;/font&gt;" style="rounded=1;whiteSpace=wrap;html=1;labelBackgroundColor=none;" vertex="1" parent="4NpJoIO45kTvrmFs0-gZ-23">
          <mxGeometry x="80.31791463414636" y="645.7105346880132" width="96.34006097560976" height="41.77103448275862" as="geometry" />
        </mxCell>
        <mxCell id="4NpJoIO45kTvrmFs0-gZ-178" value="" style="edgeStyle=orthogonalEdgeStyle;rounded=0;orthogonalLoop=1;jettySize=auto;html=1;" edge="1" parent="4NpJoIO45kTvrmFs0-gZ-23" source="4NpJoIO45kTvrmFs0-gZ-157" target="4NpJoIO45kTvrmFs0-gZ-177">
          <mxGeometry relative="1" as="geometry" />
        </mxCell>
        <mxCell id="4NpJoIO45kTvrmFs0-gZ-180" value="Display About Page" style="rounded=1;whiteSpace=wrap;html=1;labelBackgroundColor=none;" vertex="1" parent="4NpJoIO45kTvrmFs0-gZ-23">
          <mxGeometry x="279.99791463414635" y="645.7105346880132" width="96.34006097560976" height="41.77103448275862" as="geometry" />
        </mxCell>
        <mxCell id="4NpJoIO45kTvrmFs0-gZ-181" value="Display Detail&lt;div&gt;About&amp;nbsp;&lt;/div&gt;" style="rounded=1;whiteSpace=wrap;html=1;labelBackgroundColor=none;" vertex="1" parent="4NpJoIO45kTvrmFs0-gZ-23">
          <mxGeometry x="414.36797560975606" y="645.7105346880132" width="96.34006097560976" height="41.77103448275862" as="geometry" />
        </mxCell>
        <mxCell id="4NpJoIO45kTvrmFs0-gZ-182" value="" style="edgeStyle=orthogonalEdgeStyle;rounded=0;orthogonalLoop=1;jettySize=auto;html=1;" edge="1" parent="4NpJoIO45kTvrmFs0-gZ-23" source="4NpJoIO45kTvrmFs0-gZ-180" target="4NpJoIO45kTvrmFs0-gZ-181">
          <mxGeometry relative="1" as="geometry" />
        </mxCell>
        <mxCell id="4NpJoIO45kTvrmFs0-gZ-200" style="edgeStyle=orthogonalEdgeStyle;rounded=0;orthogonalLoop=1;jettySize=auto;html=1;entryX=0.5;entryY=0;entryDx=0;entryDy=0;" edge="1" parent="4NpJoIO45kTvrmFs0-gZ-23" source="4NpJoIO45kTvrmFs0-gZ-187" target="4NpJoIO45kTvrmFs0-gZ-195">
          <mxGeometry relative="1" as="geometry">
            <Array as="points">
              <mxPoint x="385" y="727.4375" />
              <mxPoint x="660" y="727.4375" />
            </Array>
          </mxGeometry>
        </mxCell>
        <mxCell id="4NpJoIO45kTvrmFs0-gZ-187" value="&lt;font style=&quot;font-size: 12px;&quot;&gt;Display Login Page&lt;/font&gt;" style="rounded=1;whiteSpace=wrap;html=1;labelBackgroundColor=none;" vertex="1" parent="4NpJoIO45kTvrmFs0-gZ-23">
          <mxGeometry x="336.94791463414634" y="766.7833548850576" width="96.34006097560976" height="41.77103448275862" as="geometry" />
        </mxCell>
        <mxCell id="4NpJoIO45kTvrmFs0-gZ-275" style="edgeStyle=orthogonalEdgeStyle;rounded=0;orthogonalLoop=1;jettySize=auto;html=1;" edge="1" parent="4NpJoIO45kTvrmFs0-gZ-23" source="4NpJoIO45kTvrmFs0-gZ-191" target="4NpJoIO45kTvrmFs0-gZ-209">
          <mxGeometry relative="1" as="geometry">
            <Array as="points">
              <mxPoint x="128" y="950" />
              <mxPoint x="660" y="950" />
            </Array>
          </mxGeometry>
        </mxCell>
        <mxCell id="4NpJoIO45kTvrmFs0-gZ-191" value="&lt;font style=&quot;font-size: 12px;&quot;&gt;Input Email &amp;amp; Password&lt;/font&gt;" style="rounded=1;whiteSpace=wrap;html=1;labelBackgroundColor=none;" vertex="1" parent="4NpJoIO45kTvrmFs0-gZ-23">
          <mxGeometry x="79.96791463414637" y="887.8547834564862" width="96.34006097560976" height="41.77103448275862" as="geometry" />
        </mxCell>
        <mxCell id="4NpJoIO45kTvrmFs0-gZ-189" style="edgeStyle=orthogonalEdgeStyle;rounded=0;orthogonalLoop=1;jettySize=auto;html=1;" edge="1" parent="4NpJoIO45kTvrmFs0-gZ-23">
          <mxGeometry relative="1" as="geometry">
            <mxPoint x="176.65797560975625" y="788.2187202380953" as="sourcePoint" />
            <mxPoint x="336.9479146341464" y="787.1257142857143" as="targetPoint" />
            <Array as="points">
              <mxPoint x="260" y="788.1346428571428" />
              <mxPoint x="260" y="787.1257142857143" />
            </Array>
          </mxGeometry>
        </mxCell>
        <mxCell id="4NpJoIO45kTvrmFs0-gZ-202" style="edgeStyle=orthogonalEdgeStyle;rounded=0;orthogonalLoop=1;jettySize=auto;html=1;" edge="1" parent="4NpJoIO45kTvrmFs0-gZ-23" source="4NpJoIO45kTvrmFs0-gZ-195" target="4NpJoIO45kTvrmFs0-gZ-191">
          <mxGeometry relative="1" as="geometry">
            <Array as="points">
              <mxPoint x="560" y="787.9732142857142" />
              <mxPoint x="560" y="847.5" />
              <mxPoint x="128" y="847.5" />
            </Array>
          </mxGeometry>
        </mxCell>
        <mxCell id="4NpJoIO45kTvrmFs0-gZ-206" value="&lt;b&gt;&lt;font style=&quot;font-size: 13px;&quot;&gt;Yes&lt;/font&gt;&lt;/b&gt;" style="edgeLabel;html=1;align=center;verticalAlign=middle;resizable=0;points=[];" connectable="0" vertex="1" parent="4NpJoIO45kTvrmFs0-gZ-202">
          <mxGeometry x="-0.8973" y="-1" relative="1" as="geometry">
            <mxPoint as="offset" />
          </mxGeometry>
        </mxCell>
        <mxCell id="4NpJoIO45kTvrmFs0-gZ-205" style="edgeStyle=orthogonalEdgeStyle;rounded=0;orthogonalLoop=1;jettySize=auto;html=1;entryX=1;entryY=0.5;entryDx=0;entryDy=0;" edge="1" parent="4NpJoIO45kTvrmFs0-gZ-23" source="4NpJoIO45kTvrmFs0-gZ-195" target="4NpJoIO45kTvrmFs0-gZ-196">
          <mxGeometry relative="1" as="geometry">
            <Array as="points">
              <mxPoint x="660" y="908.0357142857142" />
              <mxPoint x="528" y="908.0357142857142" />
            </Array>
          </mxGeometry>
        </mxCell>
        <mxCell id="4NpJoIO45kTvrmFs0-gZ-207" value="&lt;b&gt;&lt;font style=&quot;font-size: 13px;&quot;&gt;No&lt;/font&gt;&lt;/b&gt;" style="edgeLabel;html=1;align=center;verticalAlign=middle;resizable=0;points=[];" connectable="0" vertex="1" parent="4NpJoIO45kTvrmFs0-gZ-205">
          <mxGeometry x="-0.881" relative="1" as="geometry">
            <mxPoint as="offset" />
          </mxGeometry>
        </mxCell>
        <mxCell id="4NpJoIO45kTvrmFs0-gZ-195" value="&lt;font style=&quot;font-size: 13px;&quot;&gt;Already&amp;nbsp;&lt;/font&gt;&lt;div style=&quot;font-size: 13px;&quot;&gt;&lt;font style=&quot;font-size: 13px;&quot;&gt;Login ?&lt;/font&gt;&lt;/div&gt;" style="rhombus;whiteSpace=wrap;html=1;" vertex="1" parent="4NpJoIO45kTvrmFs0-gZ-23">
          <mxGeometry x="620" y="747.3133928571428" width="80" height="80.71428571428571" as="geometry" />
        </mxCell>
        <mxCell id="4NpJoIO45kTvrmFs0-gZ-208" style="edgeStyle=orthogonalEdgeStyle;rounded=0;orthogonalLoop=1;jettySize=auto;html=1;entryX=1;entryY=0.5;entryDx=0;entryDy=0;" edge="1" parent="4NpJoIO45kTvrmFs0-gZ-23" source="4NpJoIO45kTvrmFs0-gZ-196" target="4NpJoIO45kTvrmFs0-gZ-191">
          <mxGeometry relative="1" as="geometry" />
        </mxCell>
        <mxCell id="4NpJoIO45kTvrmFs0-gZ-196" value="&lt;font style=&quot;font-size: 12px;&quot;&gt;Display Sign up Page &amp;amp; Fill Data&lt;/font&gt;" style="rounded=1;whiteSpace=wrap;html=1;labelBackgroundColor=none;" vertex="1" parent="4NpJoIO45kTvrmFs0-gZ-23">
          <mxGeometry x="339.0279146341463" y="887.8547834564862" width="96.34006097560976" height="41.77103448275862" as="geometry" />
        </mxCell>
        <mxCell id="4NpJoIO45kTvrmFs0-gZ-273" style="edgeStyle=orthogonalEdgeStyle;rounded=0;orthogonalLoop=1;jettySize=auto;html=1;entryX=1;entryY=0.5;entryDx=0;entryDy=0;exitX=1;exitY=0.5;exitDx=0;exitDy=0;" edge="1" parent="4NpJoIO45kTvrmFs0-gZ-23" source="4NpJoIO45kTvrmFs0-gZ-209" target="4NpJoIO45kTvrmFs0-gZ-52">
          <mxGeometry relative="1" as="geometry">
            <Array as="points">
              <mxPoint x="770" y="1020" />
              <mxPoint x="770" y="138" />
              <mxPoint x="450" y="138" />
            </Array>
          </mxGeometry>
        </mxCell>
        <mxCell id="4NpJoIO45kTvrmFs0-gZ-276" value="&lt;b&gt;&lt;font style=&quot;font-size: 13px;&quot;&gt;Yes&lt;/font&gt;&lt;/b&gt;" style="edgeLabel;html=1;align=center;verticalAlign=middle;resizable=0;points=[];" connectable="0" vertex="1" parent="4NpJoIO45kTvrmFs0-gZ-273">
          <mxGeometry x="-0.9513" y="-1" relative="1" as="geometry">
            <mxPoint y="-2" as="offset" />
          </mxGeometry>
        </mxCell>
        <mxCell id="4NpJoIO45kTvrmFs0-gZ-280" style="edgeStyle=orthogonalEdgeStyle;rounded=0;orthogonalLoop=1;jettySize=auto;html=1;exitX=0;exitY=0.5;exitDx=0;exitDy=0;" edge="1" parent="4NpJoIO45kTvrmFs0-gZ-23" source="4NpJoIO45kTvrmFs0-gZ-209" target="4NpJoIO45kTvrmFs0-gZ-191">
          <mxGeometry relative="1" as="geometry">
            <Array as="points">
              <mxPoint x="110" y="1020" />
            </Array>
          </mxGeometry>
        </mxCell>
        <mxCell id="4NpJoIO45kTvrmFs0-gZ-281" value="&lt;b&gt;&lt;font style=&quot;font-size: 13px;&quot;&gt;No&lt;/font&gt;&lt;/b&gt;" style="edgeLabel;html=1;align=center;verticalAlign=middle;resizable=0;points=[];" connectable="0" vertex="1" parent="4NpJoIO45kTvrmFs0-gZ-280">
          <mxGeometry x="-0.8341" y="2" relative="1" as="geometry">
            <mxPoint x="2" y="-2" as="offset" />
          </mxGeometry>
        </mxCell>
        <mxCell id="4NpJoIO45kTvrmFs0-gZ-284" style="edgeStyle=orthogonalEdgeStyle;rounded=0;orthogonalLoop=1;jettySize=auto;html=1;entryX=1;entryY=0.5;entryDx=0;entryDy=0;" edge="1" parent="4NpJoIO45kTvrmFs0-gZ-23" source="4NpJoIO45kTvrmFs0-gZ-209" target="4NpJoIO45kTvrmFs0-gZ-282">
          <mxGeometry relative="1" as="geometry">
            <Array as="points">
              <mxPoint x="660" y="1078" />
            </Array>
          </mxGeometry>
        </mxCell>
        <mxCell id="4NpJoIO45kTvrmFs0-gZ-209" value="&lt;font style=&quot;font-size: 13px;&quot;&gt;Valid&amp;nbsp;&lt;/font&gt;&lt;div style=&quot;font-size: 13px;&quot;&gt;&lt;font style=&quot;font-size: 13px;&quot;&gt;Input?&lt;/font&gt;&lt;/div&gt;" style="rhombus;whiteSpace=wrap;html=1;" vertex="1" parent="4NpJoIO45kTvrmFs0-gZ-23">
          <mxGeometry x="620" y="980.0021428571428" width="80" height="80.71428571428571" as="geometry" />
        </mxCell>
        <mxCell id="4NpJoIO45kTvrmFs0-gZ-282" value="" style="ellipse;whiteSpace=wrap;html=1;aspect=fixed;labelBackgroundColor=none;fillColor=#FAFAFA;strokeWidth=2;" vertex="1" parent="4NpJoIO45kTvrmFs0-gZ-23">
          <mxGeometry x="90.00019655667145" y="1050.0012748171368" width="55.664208735110606" height="55.664208735110606" as="geometry" />
        </mxCell>
        <mxCell id="4NpJoIO45kTvrmFs0-gZ-283" value="" style="ellipse;whiteSpace=wrap;html=1;aspect=fixed;fillColor=#000000;" vertex="1" parent="4NpJoIO45kTvrmFs0-gZ-23">
          <mxGeometry x="97.83" y="1057.83" width="40" height="40" as="geometry" />
        </mxCell>
        <mxCell id="4NpJoIO45kTvrmFs0-gZ-184" value="&lt;font style=&quot;font-size: 12px;&quot;&gt;User clicked Icon Login&lt;/font&gt;" style="rounded=1;whiteSpace=wrap;html=1;labelBackgroundColor=none;" vertex="1" parent="1">
          <mxGeometry x="90.31791463414636" y="791.3976614789951" width="96.34006097560976" height="41.40137931034483" as="geometry" />
        </mxCell>
        <mxCell id="4NpJoIO45kTvrmFs0-gZ-185" value="" style="edgeStyle=orthogonalEdgeStyle;rounded=0;orthogonalLoop=1;jettySize=auto;html=1;" edge="1" parent="1" source="4NpJoIO45kTvrmFs0-gZ-177" target="4NpJoIO45kTvrmFs0-gZ-184">
          <mxGeometry relative="1" as="geometry" />
        </mxCell>
      </root>
    </mxGraphModel>
  </diagram>
</mxfile>
